<svg width="35" height="36" viewBox="0 0 35 36" fill="none" xmlns="http://www.w3.org/2000/svg">
    <path d="M17.4689 -6.10352e-05C7.84054 -6.10352e-05 0.00012207 7.97586 0.00012207 17.7706C0.00012207 27.5653 7.84054 35.5412 17.4689 35.5412C27.0972 35.5412 34.9376 27.5653 34.9376 17.7706C34.9376 7.97586 27.0972 -6.10352e-05 17.4689 -6.10352e-05ZM31.567 16.1158H27.2438C27.0386 11.8371 26.0274 8.0504 24.474 5.21783C28.3136 7.45407 31.0394 11.4495 31.567 16.1158ZM15.8275 3.84627V16.1158H10.9474C11.2845 9.91393 13.4681 5.33709 15.8275 3.84627ZM15.8275 19.4254V31.6949C13.4681 30.2041 11.2845 25.6272 10.9474 19.4254H15.8275ZM19.0956 31.6949V19.4254H23.9757C23.6386 25.6272 21.455 30.2041 19.0956 31.6949ZM19.0956 16.1158V3.84627C21.455 5.33709 23.6386 9.91393 23.9757 16.1158H19.0956ZM10.4491 5.21783C8.8957 8.0504 7.88451 11.8371 7.67934 16.1158H3.35612C3.8837 11.4495 6.60952 7.45407 10.4491 5.21783ZM3.35612 19.4254H7.67934C7.88451 23.7041 8.8957 27.4908 10.4491 30.3233C6.60952 28.0871 3.8837 24.0917 3.35612 19.4254ZM24.474 30.3233C26.0274 27.4908 27.0386 23.7041 27.2438 19.4254H31.567C31.0394 24.0917 28.3136 28.0871 24.474 30.3233Z" fill="#A7A7A7"/>
</svg>
