<svg width="37" height="37" viewBox="0 0 37 37" fill="none" xmlns="http://www.w3.org/2000/svg">
    <path d="M33.941 11.483L21.9972 1.41995C19.7403 -0.473398 16.5601 -0.473398 14.3033 1.41995L2.35945 11.483C0.864645 12.7353 0 14.6585 0 16.686V30.3122C0 33.9647 2.76979 36.9314 6.19906 36.9314H30.0867C33.516 36.9314 36.2858 33.9647 36.2858 30.3122V16.686C36.2858 14.6585 35.4211 12.7502 33.9263 11.483H33.941ZM18.1429 31.803C3.88357 25.78 4.86546 15.1803 10.1559 12.5713C15.5929 9.90275 18.1429 14.3901 18.1429 14.3901C18.1429 14.3901 20.7075 9.90275 26.1299 12.5713C31.4203 15.1803 32.4022 25.78 18.1429 31.803Z" fill="#00CF00"/>
</svg>
