<svg width="41" height="35" viewBox="0 0 41 35" fill="none" xmlns="http://www.w3.org/2000/svg">
    <path d="M21.1236 0.0149082C10.5427 0.0149082 1.94017 6.90252 1.94017 15.3555C1.94017 18.4862 3.14188 21.5573 5.35479 24.1067L0.298812 31.4713C-0.111528 32.0528 -0.0968721 32.8429 0.328123 33.4094C0.635878 33.8417 1.13415 34.0654 1.63242 34.0654C1.80828 34.0654 1.98414 34.0355 2.16 33.9759L14.4409 29.7271C16.5805 30.3532 18.8227 30.6812 21.1236 30.6812C31.7045 30.6812 40.3069 23.7936 40.3069 15.3406C40.3069 6.88762 31.7045 0 21.1236 0V0.0149082ZM29.2571 21.0952H13.1806C12.2866 21.0952 11.5538 20.3498 11.5538 19.4404C11.5538 18.531 12.2866 17.7856 13.1806 17.7856H29.2571C30.151 17.7856 30.8838 18.531 30.8838 19.4404C30.8838 20.3498 30.151 21.0952 29.2571 21.0952ZM29.2571 12.9255H13.1806C12.2866 12.9255 11.5538 12.18 11.5538 11.2706C11.5538 10.3612 12.2866 9.61583 13.1806 9.61583H29.2571C30.151 9.61583 30.8838 10.3612 30.8838 11.2706C30.8838 12.18 30.151 12.9255 29.2571 12.9255Z" fill="#A7A7A7"/>
</svg>
