<svg width="29" height="39" viewBox="0 0 29 39" fill="none" xmlns="http://www.w3.org/2000/svg">
    <path d="M24.8831 27.2821V16.2798C24.8831 11.9564 22.4357 8.21445 18.8892 6.38073V5.20298C18.8892 2.3406 16.7056 0 14.0384 0C11.3712 0 9.18758 2.32569 9.18758 5.20298V6.38073C5.64107 8.19954 3.19369 11.9564 3.19369 16.2798V27.2821C1.50837 27.7294 0.262695 29.1904 0.262695 30.9346C0.262695 33.0367 2.0506 34.7362 4.2635 34.7362H9.26086C9.6712 37.1514 11.6496 39 14.0237 39C16.3978 39 18.3763 37.1514 18.7866 34.7362H23.784C25.9822 34.7362 27.7848 33.0367 27.7848 30.9346C27.7848 29.1904 26.5391 27.7294 24.8538 27.2821H24.8831ZM12.441 5.20298C12.441 4.1594 13.1591 3.32454 14.0384 3.32454C14.9177 3.32454 15.6358 4.17431 15.6358 5.20298V5.33716C15.1082 5.26261 14.5806 5.20298 14.0384 5.20298C13.4962 5.20298 12.9686 5.26261 12.441 5.33716V5.20298ZM14.0384 8.51261C18.2151 8.51261 21.615 12.0011 21.615 16.2798V27.133H6.44711V16.2798C6.44711 12.0011 9.84706 8.51261 14.0237 8.51261H14.0384ZM14.0384 35.6904C13.4522 35.6904 12.9539 35.3027 12.6901 34.7362H15.4013C15.1229 35.2878 14.6393 35.6904 14.0531 35.6904H14.0384ZM23.8133 31.4266H4.27817C3.85318 31.4266 3.54542 31.1732 3.54542 30.9346C3.54542 30.6961 3.85318 30.4427 4.27817 30.4427H23.8133C24.2383 30.4427 24.546 30.6961 24.546 30.9346C24.546 31.1732 24.2383 31.4266 23.8133 31.4266Z" fill="#A7A7A7"/>
    <path d="M1.24506 12.7167C1.37696 12.7466 1.49421 12.7615 1.62611 12.7615C2.35886 12.7615 3.03297 12.2397 3.20883 11.4794C3.7071 9.34747 5.33381 8.15481 5.39243 8.11009C6.13984 7.60321 6.33036 6.57454 5.83209 5.81422C5.33382 5.0539 4.32261 4.84518 3.5752 5.35206C3.45796 5.4266 0.849391 7.24541 0.0433667 10.7041C-0.161803 11.5986 0.380434 12.4931 1.25973 12.7018L1.24506 12.7167Z" fill="#A7A7A7"/>
    <path d="M24.8687 11.4793C25.0446 12.2396 25.7187 12.7614 26.4514 12.7614C26.5687 12.7614 26.7006 12.7614 26.8325 12.7167C27.7118 12.508 28.254 11.6135 28.0489 10.719C27.2428 7.26027 24.6342 5.44146 24.517 5.36692C23.7696 4.86004 22.7731 5.06875 22.2748 5.81417C21.7765 6.57449 21.967 7.60316 22.6998 8.11004C22.7144 8.11004 24.3851 9.31761 24.8834 11.4793H24.8687Z" fill="#A7A7A7"/>
</svg>
