<svg width="23" height="23" viewBox="0 0 23 23" fill="none" xmlns="http://www.w3.org/2000/svg">
    <g clip-path="url(#clip0_465_70)">
        <path d="M2.51697 23.0001C1.1747 23.0001 0.0866699 21.882 0.0866699 20.5027V2.49764C0.0866699 1.11825 1.1747 0.000144958 2.51697 0.000144958C3.85924 0.000144958 4.94726 1.11825 4.94726 2.49764V20.5027C4.94726 21.882 3.85924 23.0001 2.51697 23.0001Z" fill="#A7A7A7"/>
        <path d="M11.1165 23.0001C9.77421 23.0001 8.68619 21.882 8.68619 20.5027V2.49764C8.68619 1.11825 9.77421 0.000144958 11.1165 0.000144958C12.4588 0.000144958 13.5468 1.11825 13.5468 2.49764V20.5027C13.5468 21.882 12.4588 23.0001 11.1165 23.0001Z" fill="#A7A7A7"/>
        <path d="M19.716 23.0001C18.3737 23.0001 17.2857 21.882 17.2857 20.5027V2.49764C17.2857 1.11825 18.3737 0.000144958 19.716 0.000144958C21.0583 0.000144958 22.1463 1.11825 22.1463 2.49764V20.5027C22.1463 21.882 21.0583 23.0001 19.716 23.0001Z" fill="#A7A7A7"/>
    </g>
    <defs>
        <clipPath id="clip0_465_70">
            <rect width="22.0596" height="23" fill="white" transform="translate(0.0866699 0.000144958)"/>
        </clipPath>
    </defs>
</svg>
