<svg width="23" height="22" viewBox="0 0 23 22" fill="none" xmlns="http://www.w3.org/2000/svg">
    <g clip-path="url(#clip0_465_105)">
        <path d="M11.1153 0C5.03386 0 0.086731 4.93376 0.086731 10.9987C0.086731 17.0637 5.03386 21.9975 11.1153 21.9975C17.1967 21.9975 22.1438 17.0637 22.1438 10.9987C22.1438 4.93376 17.1992 0 11.1153 0ZM11.1153 19.2409C6.55799 19.2409 2.8533 15.5437 2.8533 11.0013C2.8533 6.45879 6.5605 2.75909 11.1153 2.75909C15.6701 2.75909 19.3773 6.45628 19.3773 10.9987C19.3773 15.5412 15.6701 19.2384 11.1153 19.2384V19.2409Z" fill="#A7A7A7"/>
        <path d="M16.6979 5.65478C16.1181 5.09954 15.1795 5.09954 14.5997 5.65478L11.1152 8.99138L7.63341 5.65478C7.05356 5.09954 6.11501 5.09954 5.53517 5.65478C4.95532 6.21002 4.95532 7.10873 5.53517 7.66397L9.01695 11.0006L5.53517 14.3372C4.95532 14.8924 4.95532 15.7911 5.53517 16.3464C5.82374 16.6227 6.20401 16.7622 6.58429 16.7622C6.96456 16.7622 7.34483 16.6227 7.63341 16.3464L11.1152 13.0098L14.5997 16.3464C14.8882 16.6227 15.2685 16.7622 15.6488 16.7622C16.0291 16.7622 16.4093 16.6227 16.6979 16.3464C17.2778 15.7911 17.2778 14.8924 16.6979 14.3372L13.2134 11.0006L16.6979 7.66397C17.2778 7.10873 17.2778 6.21002 16.6979 5.65478Z" fill="#A7A7A7"/>
    </g>
    <defs>
        <clipPath id="clip0_465_105">
            <rect width="22.0596" height="22" fill="white" transform="translate(0.086731)"/>
        </clipPath>
    </defs>
</svg>
