<svg width="18" height="20" viewBox="0 0 18 20" fill="none" xmlns="http://www.w3.org/2000/svg">
    <g clip-path="url(#clip0_465_110)">
        <path d="M15.8416 19.9976C15.4644 19.9976 15.0943 19.832 14.8444 19.5269L8.63512 12.0298L2.38105 19.5316C2.03216 19.9503 1.45696 20.1065 0.943055 19.9196C0.431508 19.7327 0.0896912 19.243 0.0896912 18.6965V1.30116C0.0920485 0.581973 0.671959 0 1.3886 0H15.8416C16.5582 0 17.1381 0.581973 17.1381 1.30116V18.6965C17.1381 19.2453 16.7963 19.735 16.2824 19.9196C16.1386 19.9716 15.9901 19.9976 15.8416 19.9976ZM2.68514 2.60232V15.1147L7.64503 9.16489C7.8902 8.86917 8.25559 8.69884 8.63984 8.69884C9.02409 8.69884 9.38948 8.87154 9.63464 9.16726L14.5427 15.0958V2.60232H2.68514Z" fill="#A7A7A7"/>
    </g>
    <defs>
        <clipPath id="clip0_465_110">
            <rect width="17.0461" height="20" fill="white" transform="translate(0.0921326)"/>
        </clipPath>
    </defs>
</svg>
