<svg width="31" height="30" viewBox="0 0 31 30" fill="none" xmlns="http://www.w3.org/2000/svg">
    <g clip-path="url(#clip0_465_145)">
        <path d="M29.9564 13.0138C31.1871 6.97442 29.1336 2.90364 27.979 1.20924C27.3637 0.309312 26.2989 -0.147683 25.2203 0.0421455C24.0449 0.253067 21.549 0.998321 19.6752 2.48883C19.2535 2.8263 18.887 3.16378 18.5552 3.50125C23.9066 4.59804 28.2279 8.25401 29.9564 13.0138Z"
              fill="#A7A7A7"/>
        <path d="M12.0696 3.45915C11.7516 3.14277 11.3989 2.81233 10.9979 2.49595C9.12422 1.00544 6.62825 0.253153 5.45287 0.0422321C4.36736 -0.147597 3.3026 0.316429 2.69417 1.20933C1.56027 2.86154 -0.410235 6.77061 0.626871 12.5569C2.48675 7.9588 6.79419 4.46454 12.0696 3.45915Z"
              fill="#A7A7A7"/>
        <path d="M15.2571 5.24492C7.91443 5.2168 1.91305 10.75 1.89231 17.5768C1.86465 24.4036 7.82455 29.9719 15.1742 30C22.5169 30.0281 28.5183 24.495 28.539 17.6752C28.5667 10.8484 22.6068 5.27304 15.2571 5.25195V5.24492ZM7.69318 16.7612C6.59385 16.7612 5.57749 17.2252 4.82386 18.083C4.42284 18.54 3.73144 18.5751 3.28203 18.1673C2.83262 17.7596 2.79805 17.0565 3.19906 16.5995C4.36062 15.2918 5.99924 14.5395 7.7001 14.5465C9.40095 14.5465 11.0396 15.3129 12.1873 16.6347C12.5883 17.0916 12.5468 17.7947 12.0974 18.2025C11.648 18.6103 10.9566 18.5681 10.5556 18.1111C9.80888 17.2534 8.79252 16.7753 7.69318 16.7682V16.7612ZM19.9379 23.1029C18.7764 24.4106 17.1378 25.1629 15.4369 25.1559C13.7361 25.1488 12.0974 24.3895 10.9497 23.0677C10.5487 22.6108 10.5902 21.9077 11.0396 21.4999C11.489 21.0991 12.1804 21.1343 12.5814 21.5913C13.3281 22.449 14.3445 22.9271 15.4438 22.9342C16.5431 22.9412 17.5595 22.4701 18.3131 21.6124C18.7142 21.1554 19.4056 21.1202 19.855 21.528C20.3044 21.9358 20.339 22.6389 19.9379 23.0959V23.1029ZM25.6351 18.1041C24.8884 17.2463 23.872 16.7682 22.7727 16.7612C21.6803 16.7612 20.657 17.2252 19.9034 18.083C19.5024 18.54 18.811 18.5751 18.3615 18.1673C17.9121 17.7596 17.8776 17.0565 18.2786 16.5995C19.4401 15.2918 21.0788 14.5395 22.7796 14.5465C24.4805 14.5465 26.1122 15.3129 27.2668 16.6347C27.6678 17.0916 27.6263 17.7947 27.1769 18.2025C26.7275 18.6103 26.0361 18.5681 25.6351 18.1111V18.1041Z"
              fill="#A7A7A7"/>
    </g>
    <defs>
        <clipPath id="clip0_465_145">
            <rect width="30" height="30" fill="white" transform="translate(0.33667)"/>
        </clipPath>
    </defs>
</svg>
