<svg width="36" height="21" viewBox="0 0 36 21" fill="none" xmlns="http://www.w3.org/2000/svg">
    <g clip-path="url(#clip0_465_59)">
        <path d="M17.6141 21.0001C12.5165 21.0001 7.75252 18.5207 4.86645 14.3703C4.57735 13.9563 4.57735 13.4083 4.86645 12.9942C7.75252 8.8439 12.519 6.36443 17.6141 6.36443C22.7092 6.36443 27.4756 8.8439 30.3617 12.9942C30.6508 13.4083 30.6508 13.9563 30.3617 14.3703C27.4756 18.5207 22.7092 21.0001 17.6141 21.0001ZM7.41894 13.6811C9.87259 16.7524 13.6235 18.5621 17.6165 18.5621C21.6096 18.5621 25.358 16.7524 27.8117 13.6811C25.358 10.6097 21.6071 8.80006 17.6165 8.80006C13.626 8.80006 9.87506 10.6097 7.41894 13.6811Z" fill="#A7A7A7"/>
        <path d="M17.6141 19.568C13.5024 19.568 10.1592 16.2701 10.1592 12.2197C10.1592 10.7973 10.5719 9.41627 11.3551 8.22768C11.7258 7.66261 12.4918 7.50186 13.0626 7.86721C13.6358 8.23255 13.7989 8.9876 13.4283 9.55266C12.9069 10.3467 12.6302 11.2698 12.6302 12.2197C12.6302 14.9281 14.8664 17.1323 17.6141 17.1323C20.3617 17.1323 22.598 14.9281 22.598 12.2197C22.598 11.1334 22.2471 10.1056 21.5824 9.24577C21.1697 8.70993 21.2735 7.94758 21.8171 7.5384C22.3607 7.13165 23.1342 7.23394 23.5493 7.76978C24.5451 9.05823 25.0714 10.5975 25.0714 12.2197C25.0714 16.2726 21.7257 19.568 17.6165 19.568H17.6141Z" fill="#A7A7A7"/>
        <path d="M19.3437 13.1136C18.1626 13.1136 17.2014 12.1661 17.2014 11.0019C17.2014 10.3857 17.4707 9.8352 17.8982 9.44793C17.8043 9.43819 17.7104 9.43332 17.6141 9.43332C16.0549 9.43332 14.7873 10.6828 14.7873 12.2197C14.7873 13.7566 16.0549 15.006 17.6141 15.006C18.9484 15.006 20.0677 14.0878 20.3617 12.8603C20.0578 13.0234 19.7119 13.1136 19.3437 13.1136Z" fill="#A7A7A7"/>
        <path d="M17.6141 4.92009C16.9321 4.92009 16.3786 4.37451 16.3786 3.70228V1.21794C16.3786 0.545703 16.9321 0.00012207 17.6141 0.00012207C18.2961 0.00012207 18.8495 0.545703 18.8495 1.21794V3.70228C18.8495 4.37451 18.2961 4.92009 17.6141 4.92009Z" fill="#A7A7A7"/>
        <path d="M3.69028 11.7155C3.47778 11.7155 3.26528 11.6619 3.07007 11.5499L0.680667 10.1762C0.0901104 9.83763 -0.107565 9.09233 0.235896 8.51021C0.579358 7.93053 1.33547 7.73325 1.92602 8.0718L4.31543 9.4455C4.90598 9.78405 5.10366 10.5294 4.7602 11.1115C4.5304 11.4987 4.11775 11.7155 3.69275 11.7155H3.69028Z" fill="#A7A7A7"/>
        <path d="M31.5378 11.7155C31.1128 11.7155 30.7002 11.4987 30.4704 11.1115C30.1269 10.5294 30.3246 9.78405 30.9152 9.4455L33.3046 8.0718C33.8951 7.73325 34.6512 7.93053 34.9947 8.51021C35.3382 9.09233 35.1405 9.83763 34.5499 10.1762L32.1605 11.5499C31.9653 11.6619 31.7503 11.7155 31.5403 11.7155H31.5378Z" fill="#A7A7A7"/>
        <path d="M9.63291 6.77361C9.21532 6.77361 8.80762 6.56415 8.57535 6.18663L7.14467 3.85329C6.79132 3.27848 6.97912 2.52831 7.56226 2.18001C8.1454 1.83172 8.90645 2.01683 9.2598 2.59164L10.6905 4.92497C11.0438 5.49978 10.856 6.24995 10.2729 6.59825C10.0727 6.71759 9.85283 6.77361 9.63538 6.77361H9.63291Z" fill="#A7A7A7"/>
        <path d="M25.5977 6.77361C25.3803 6.77361 25.1604 6.71759 24.9602 6.59825C24.3771 6.24995 24.1893 5.50221 24.5426 4.92497L25.9733 2.59164C26.3266 2.01683 27.0852 1.83172 27.6708 2.18001C28.254 2.52831 28.4418 3.27605 28.0884 3.85329L26.6577 6.18663C26.4255 6.56415 26.0178 6.77361 25.6002 6.77361H25.5977Z" fill="#A7A7A7"/>
    </g>
    <defs>
        <clipPath id="clip0_465_59">
            <rect width="35.0949" height="21" fill="white" transform="translate(0.0678711 0.00012207)"/>
        </clipPath>
    </defs>
</svg>
