<svg width="24" height="28" viewBox="0 0 24 28" fill="none" xmlns="http://www.w3.org/2000/svg">
    <g clip-path="url(#clip0_465_77)">
        <path d="M1.5729 25.9692C0.752533 25.9692 0.086731 25.3156 0.086731 24.5102V5.83577C0.086731 5.03044 0.752533 4.37683 1.5729 4.37683H13.3612C14.1815 4.37683 14.8473 5.03044 14.8473 5.83577C14.8473 6.64111 14.1815 7.29471 13.3612 7.29471H3.05906V24.5102C3.05906 25.3156 2.39326 25.9692 1.5729 25.9692Z" fill="#A7A7A7"/>
        <path d="M21.6599 28C21.541 28 21.4192 27.9854 21.3003 27.9562L13.0015 25.9254C12.3387 25.762 11.875 25.1784 11.875 24.5102V5.83576C11.875 5.29887 12.1752 4.80575 12.6567 4.55189L20.9585 0.17507C21.4192 -0.0671144 21.975 -0.0554429 22.4238 0.207167C22.8726 0.469776 23.1461 0.945391 23.1461 1.45894V26.5411C23.1461 26.9904 22.9351 27.4135 22.5754 27.6907C22.3109 27.892 21.9899 28 21.6599 28ZM14.8473 23.3693L20.1738 24.6736V3.89829L14.8473 6.70821V23.3693Z" fill="#A7A7A7"/>
    </g>
    <defs>
        <clipPath id="clip0_465_77">
            <rect width="23.0623" height="28" fill="white" transform="translate(0.086731)"/>
        </clipPath>
    </defs>
</svg>
