<svg width="31" height="30" viewBox="0 0 31 30" fill="none" xmlns="http://www.w3.org/2000/svg">
    <g clip-path="url(#clip0_465_155)">
        <path d="M28.8509 12.3H26.8843C26.3568 12.3 25.8895 11.9677 25.7229 11.4646C25.5517 10.9431 25.3434 10.44 25.0982 9.96C24.8622 9.48923 24.9548 8.92154 25.3296 8.55231L26.7177 7.16769C27.199 6.68769 27.199 5.91231 26.7177 5.43692L24.6308 3.35538C24.1496 2.87538 23.3722 2.87538 22.8956 3.35538L21.5075 4.74C21.1326 5.11385 20.5635 5.20615 20.0961 4.97077C19.6103 4.72615 19.1059 4.51846 18.5877 4.34769C18.0879 4.18154 17.7501 3.71538 17.7501 3.18923V1.22308C17.7501 0.544615 17.1995 0 16.5239 0H13.5717C12.8915 0 12.3455 0.549231 12.3455 1.22308V3.18462C12.3455 3.71077 12.0123 4.17692 11.508 4.34308C10.9851 4.51385 10.4807 4.72154 9.99949 4.96615C9.52751 5.20154 8.95835 5.10923 8.58817 4.73538L7.2 3.35077C6.71877 2.87077 5.94139 2.87077 5.46478 3.35077L3.37789 5.43231C2.89666 5.91231 2.89666 6.68769 3.37789 7.16308L4.76607 8.54769C5.14087 8.92154 5.23342 9.48923 4.99743 9.95538C4.75219 10.44 4.54396 10.9431 4.37275 11.46C4.20617 11.9585 3.73882 12.2954 3.21131 12.2954H1.22622C0.546016 12.2954 0 12.8446 0 13.5185V16.4631C0 17.1415 0.550643 17.6862 1.22622 17.6862H3.1928C3.72031 17.6862 4.18766 18.0185 4.35424 18.5215C4.52545 19.0431 4.73368 19.5462 4.97892 20.0262C5.21491 20.4969 5.12237 21.0646 4.74756 21.4338L3.35938 22.8185C2.87815 23.2985 2.87815 24.0738 3.35938 24.5492L5.44627 26.6308C5.92751 27.1108 6.70489 27.1108 7.18149 26.6308L8.56967 25.2462C8.94447 24.8723 9.51363 24.78 9.98098 25.0154C10.4668 25.26 10.9712 25.4677 11.4895 25.6385C11.9892 25.8046 12.327 26.2708 12.327 26.7969V28.7585C12.327 29.4369 12.8776 29.9815 13.5532 29.9815H16.5054C17.1856 29.9815 17.7316 29.4323 17.7316 28.7585V26.7969C17.7316 26.2708 18.0648 25.8046 18.5692 25.6385C19.092 25.4677 19.5964 25.26 20.0776 25.0154C20.5496 24.78 21.1188 24.8723 21.4889 25.2462L22.8771 26.6308C23.3584 27.1108 24.1357 27.1108 24.6123 26.6308L26.6992 24.5492C27.1805 24.0692 27.1805 23.2938 26.6992 22.8185L25.3111 21.4338C24.9362 21.06 24.8437 20.4923 25.0797 20.0262C25.3249 19.5415 25.5332 19.0385 25.7044 18.5215C25.871 18.0231 26.3383 17.6862 26.8658 17.6862H28.8324C29.5126 17.6862 30.0586 17.1369 30.0586 16.4631V13.5185C30.0586 12.84 29.508 12.2954 28.8324 12.2954L28.8509 12.3ZM15.0386 20.7692C11.8458 20.7692 9.2545 18.1846 9.2545 15C9.2545 11.8154 11.8458 9.23077 15.0386 9.23077C18.2314 9.23077 20.8226 11.8154 20.8226 15C20.8226 18.1846 18.2314 20.7692 15.0386 20.7692Z" fill="#A7A7A7"/>
    </g>
    <defs>
        <clipPath id="clip0_465_155">
            <rect width="30.0771" height="30" fill="white"/>
        </clipPath>
    </defs>
</svg>
