<svg width="27" height="41" viewBox="0 0 27 41" fill="none" xmlns="http://www.w3.org/2000/svg">
    <g clip-path="url(#clip0_465_40)">
        <path d="M21.3933 41H5.60668C2.51414 41 0 38.5471 0 35.5298V20.1275C0 17.1103 2.51414 14.6574 5.60668 14.6574H8.21722C9.17738 14.6574 9.95244 15.4136 9.95244 16.3503C9.95244 17.2871 9.17738 18.0433 8.21722 18.0433H5.60668C4.42674 18.0433 3.47044 18.9801 3.47044 20.1275V35.5298C3.47044 36.681 4.43059 37.6141 5.60668 37.6141H21.3933C22.5733 37.6141 23.5296 36.6773 23.5296 35.5298V20.1275C23.5296 18.9763 22.5694 18.0433 21.3933 18.0433H18.9062C17.946 18.0433 17.171 17.2871 17.171 16.3503C17.171 15.4136 17.946 14.6574 18.9062 14.6574H21.3933C24.4859 14.6574 27 17.1103 27 20.1275V35.5298C27 38.5471 24.4859 41 21.3933 41ZM13.5 30.1424C12.5398 30.1424 11.7648 29.3862 11.7648 28.4494V5.77867L6.07712 11.3279C5.39846 11.99 4.29949 11.99 3.62468 11.3279C2.94602 10.6657 2.94602 9.5935 3.62468 8.93513L12.2738 0.496605C12.9524 -0.165535 14.0514 -0.165535 14.7262 0.496605L23.3753 8.93513C24.054 9.59727 24.054 10.6695 23.3753 11.3279C22.6967 11.99 21.5977 11.99 20.9229 11.3279L15.2352 5.77867V28.4457C15.2352 29.3825 14.4602 30.1386 13.5 30.1386V30.1424Z"
              fill="#A7A7A7"/>
    </g>
    <defs>
        <clipPath id="clip0_465_40">
            <rect width="27" height="41" fill="white"/>
        </clipPath>
    </defs>
</svg>
