<svg width="37" height="21" viewBox="0 0 37 21" fill="none" xmlns="http://www.w3.org/2000/svg">
    <g clip-path="url(#clip0_465_136)">
        <path d="M18.0882 20.617C10.9688 20.617 4.31355 17.1059 0.284398 11.2241C-0.0933345 10.6736 -0.0933345 9.94696 0.284398 9.39295C4.31355 3.51112 10.9688 0 18.0882 0C25.2076 0 31.8629 3.51112 35.892 9.39295C36.2697 9.94336 36.2697 10.67 35.892 11.2241C31.8629 17.1059 25.2076 20.617 18.0882 20.617ZM3.62284 10.3067C7.09078 14.7532 12.415 17.3757 18.0882 17.3757C23.7614 17.3757 29.0856 14.7532 32.5536 10.3067C29.0856 5.86025 23.7614 3.23771 18.0882 3.23771C12.415 3.23771 7.09078 5.86025 3.62284 10.3067Z"
              fill="#A7A7A7"/>
        <path d="M18.088 18.8471C13.379 18.8471 9.55127 15.0158 9.55127 10.3103C9.55127 5.60484 13.379 1.76996 18.088 1.76996C22.7971 1.76996 26.6248 5.60125 26.6248 10.3067C26.6248 15.0122 22.7935 18.8435 18.088 18.8435V18.8471ZM18.088 5.00767C15.1669 5.00767 12.789 7.38558 12.789 10.3067C12.789 13.2279 15.1669 15.6058 18.088 15.6058C21.0092 15.6058 23.3871 13.2279 23.3871 10.3067C23.3871 7.38558 21.0092 5.00767 18.088 5.00767Z"
              fill="#A7A7A7"/>
        <path d="M18.088 12.0766C19.0655 12.0766 19.8579 11.2842 19.8579 10.3067C19.8579 9.32918 19.0655 8.53674 18.088 8.53674C17.1105 8.53674 16.3181 9.32918 16.3181 10.3067C16.3181 11.2842 17.1105 12.0766 18.088 12.0766Z"
              fill="#A7A7A7"/>
        <path d="M18.088 13.6955C16.2209 13.6955 14.6992 12.1738 14.6992 10.3067C14.6992 8.43963 16.2209 6.91791 18.088 6.91791C19.9551 6.91791 21.4768 8.43963 21.4768 10.3067C21.4768 12.1738 19.9551 13.6955 18.088 13.6955ZM18.088 10.1556C18.0053 10.1556 17.9369 10.224 17.9369 10.3067C17.9369 10.3895 18.0053 10.4578 18.088 10.4578C18.1708 10.4578 18.2391 10.3895 18.2391 10.3067C18.2391 10.224 18.1708 10.1556 18.088 10.1556Z"
              fill="#A7A7A7"/>
    </g>
    <defs>
        <clipPath id="clip0_465_136">
            <rect width="36.176" height="20.617" fill="white"/>
        </clipPath>
    </defs>
</svg>
